/* XPM */
static char *_fdb8f2625ea440cea3f8386948e9fbeC5iJrGyURuFupgGM[] = {
/* columns rows colors chars-per-pixel */
"64 64 102 2 ",
"   c #1E2335",
".  c #1F2335",
"X  c #1F2537",
"o  c #202437",
"O  c #212739",
"+  c #23273A",
"@  c #22283B",
"#  c #24283B",
"$  c #222A3D",
"%  c #262B3E",
"&  c #232C3F",
"*  c #242D40",
"=  c #253044",
"-  c #263145",
";  c #273448",
":  c #28354A",
">  c #2A374D",
",  c #30354B",
"<  c #32374D",
"1  c #2C3B51",
"2  c #2E3E54",
"3  c #333850",
"4  c #363B53",
"5  c #373D54",
"6  c #2E4057",
"7  c #2F4259",
"8  c #30455C",
"9  c #31455E",
"0  c #3C415A",
"q  c #3E455E",
"w  c #3F455E",
"e  c #344B64",
"r  c #364E67",
"t  c #37506A",
"y  c #38526C",
"u  c #3A546F",
"i  c #3A5570",
"p  c #3C5873",
"a  c #3F5D7A",
"s  c #4B526E",
"d  c #4C536F",
"f  c #4D5471",
"g  c #515876",
"h  c #40617D",
"j  c #40627E",
"k  c #426481",
"l  c #446885",
"z  c #446886",
"x  c #456988",
"c  c #466A88",
"v  c #466C8B",
"b  c #476D8D",
"n  c #5A6182",
"m  c #5F6788",
"M  c #4A7393",
"N  c #4C7595",
"B  c #4D7899",
"V  c #4D799A",
"C  c #4E7A9B",
"Z  c #4F7B9D",
"A  c #4F7C9E",
"S  c #61698B",
"D  c #646C8E",
"F  c #666F91",
"G  c #70799E",
"H  c #717A9F",
"J  c #767EA4",
"K  c #5180A2",
"L  c #5281A4",
"P  c #5282A5",
"I  c #5383A6",
"U  c #588BAF",
"Y  c #588EB2",
"T  c #598EB3",
"R  c #5B90B5",
"E  c #5C93B9",
"W  c #5D94BB",
"Q  c #5E98BE",
"!  c #7880A7",
"~  c #7982A9",
"^  c #619DC5",
"/  c #65A4CE",
"(  c #66A5CE",
")  c #68A7D2",
"_  c #68AAD4",
"`  c #6AACD6",
"'  c #6BADD8",
"]  c #6AAED9",
"[  c #6CB0DB",
"{  c #6FB6E2",
"}  c #70B7E4",
"|  c #70B9E5",
" . c #71BBE8",
".. c #73BCEA",
"X. c #74C0ED",
"o. c #76C4F3",
"O. c #7AC9F8",
"+. c #7ACAFA",
"@. c #7BCBFC",
"#. c #7CCDFD",
"$. c #7DCFFE",
"%. c #7DCFFF",
/* pixels */
". . . . . . . . . . . . . . O %.%.%.%.K O o . . . . . . . . . . . . . . . . . . . . . . . . . . O %.%.%.%.I o . . . . . . . . . ",
". . . . . . . . . . . . . . O %.%.%.%.P o o . . . . . . . . . . . . . . . . . . . . . . . . . . O %.%.%.%.K o . . . . . . . . . ",
". . . . . . . . . . . . . . O %.%.%.%.K . . . . . . . . . . . . . . . . . . . . . . . . . . . . @ %.%.%.%.K . . . . . . . . . . ",
". . . . . . . . . . . . . . . M B C B 8 . . . . . . . . . . . o . . . . . . . . . . . . . . . . . M B B A 8 . . . . . . . . . . ",
". . . . . . . . . . . . . X . . o o o o . . . . . . o . . . o o . . . o . . . . . . . . o o o o . . O . . . . . . . . . . . . . ",
". . r K x > . . . . . : ; ; : : : ; ; o . . . . . . o = ; ; ; @ . . y K l 1 . . . . . . . ; ; : ; ; : : ; X . . . . . . . . . . ",
"t ] %.%.%.%.u . . . = %.%.%.%.%.%.%.%.C . . . . . . .  .%.%.%._ v @.%.%.%.%.K o . . . . = $.%.%.%.%.%.%.%.C o . . . . . . X $ U ",
"%.%.%.%.%.%...X . . = %.%.%.%.%.%.%.%.A . . . . . . . } %.%.%.o.$.%.%.%.%.%.%.z . . . . = $.%.%.%.%.%.%.%.K . . . . . . . X } %.",
"%.%.%.%.%.%.%.= . . = %.%.%.%.%.%.%.%.I o o . . . . .  .%.%.%.%.%.%.%.%.%.%.%.X.o . . . = %.%.%.%.%.%.%.%.K . . . . . . . v %.%.",
"%.O.u { %.%.%.u . . @ A A A K %.%.%.%.K X . . . . . .  .%.%.%.%.O.N / %.%.%.%.%.O . . . O C Z Z K %.%.%.%.K . . . . . . . ` %.%.",
"%./ X N %.%.%.j . . . . . . O %.%.%.%.P . X . . . . .  .%.%.%.%.p .   U %.%.%.%.6 . . . . . . . # %.%.%.%.K . . . . . . .  .%.%.",
"%.Q X z %.%.%.b . . . . . . O %.%.%.%.K X . . . . . .  .%.%.%.%.= . . p %.%.%.%.e . . . . . . . @ %.%.%.%.K . . . . . . . ( %.%.",
"%.W . k %.%.%.B . . . . . . O %.%.%.%.P . . . . . . .  .%.%.%.X.o . . r %.%.%.%.y o . . . . . . @ %.%.%.%.K o o . . . . . N %.%.",
"%.W . k %.%.%.Z . . . . . . O %.%.%.%.K . . . . . . .  .%.%.%.[ . . . r %.%.%.%.y o . . . . . . O %.%.%.%.K o o . . . . . X  .%.",
"%.W . k %.%.%.Z . . . . . . O %.%.%.%.K . . . . . . .  .%.%.%.[ . . . r %.%.%.%.u o o . . . . . O %.%.%.$.K . . . . . . . . $ Q ",
"%.W . k %.%.%.Z . . . . . . O %.%.%.%.K . . . . . . .  .%.%.%.[ . . . r %.%.%.%.u o . . . . . . O %.%.%.$.K . . . . . . . o o o ",
"%.W . k %.%.%.Z . . . . . . O %.%.%.%.K o o . . . . .  .%.%.%.[ . . . r %.%.%.%.u . . o . . . . O %.%.%.%.K X . . X . X . . X . ",
"%.W . k %.%.%.Z o o . . . . o %.%.%.%.K o o . . . . .  .%.%.%.[ . . . r %.%.%.%.u . . o . . . . O %.%.%.%.K X X X . . . . u u . ",
"%.W . k %.%.%.Z o = Y Y Y Y R %.%.%.%.X.Y Y U R h . .  .%.%.%.[ . . . r %.%.%.%.u . . = Y Y Y Y R %.%.%.$.X.U R U U h X o U +...",
"%.W . k %.%.%.Z o 8 %.%.%.#.%.%.%.%.%.%.%.%.%.#.Q . .  .%.%.%.[ . . . r %.%.%.%.u . . 8 %.%.%.%.%.%.%.%.$.$.%.%.%.%.Q . o R %.%.",
"%.W X j %.%.%.Z o 7 %.%.%.%.%.@.%.%.%.%.%.%.%.%.Q . . X.%.%.%.[ . . . r %.%.%.%.u . . 8 %.%.%.%.%.%.%.%.%.%.%.%.%.%.Q . o Y %.%.",
"%.T o p %.%.%.N o 1 %.%.%.%.%.@.%.%.%.%.%.%.%.%.E . . [ %.%.%.[ . . o 8 $.%.%.%.u . . 6 %.%.%.%.%.%.%.%.%.%.%.%.%.%.E . X u ` @.",
"o o . . . X X . . . . . o o . . . . . . . . . . . . . . . . . . . . o o . . . . . . . . . . . . . . . . . . . . . . . . . . o o ",
"o o X . . . . . . . . . . o . . . . . . . . . . . . . . . . . . . . . . . . . . . . . . . . . . . . . . . . . . . . . . . . . X ",
". . . . . . . . . . . . . . . . . . . . . . . . . . . . . . . . . . . . . . . . . . . . . . . . . . . . . . . . . . . . . . . . ",
". . . . . . . . . . . . . . . . . . . . . . . . . . . . . . . . . . . . . . . . . . . . . . . . . . . . . . . . . . . . . . . . ",
". . . . . . . . . . . . . . . . . . . . . . . . . . . . . . . . . . . . . . . . . . . . . . . . . . . . . . . . . . . . . . . . ",
". . . . . . . . . . . . . . . . . . . . . . . . . . . . . . . . . . . . . . . . . . . . . . . . . . . . . . . . . . . . . . . . ",
". . . . . . . . . . . . . . . . . . . . . . . . . . . . . . . . . . . . . . . . . . . . . . . . . . . . . . . . . . . . . . . . ",
". . . . . . . . . . . . . . . . . . . . . . . . . . . . . . . . . . . . . . . . . . . . . . . . . . . . . . . . . . . . . . . . ",
". . . . . . . . . . . . . . . . . . . . . . . . . . . . . . . . . . . . . . . . . . . . . . . . . . . . . . . . . . . . . . . . ",
". . . . . . . . . . . . . . . . . . . . . . . . . . . . . . . . . . . . . . . . . . . . . . . . . . . . . . . . . . . . . . . . ",
". . . . . . . . . . . . . . . . . . . . . . . . . . . o . . o o . . . . . . . . . . . . . . . . . . . . . . . . . . . . . . . . ",
". . . . . . . . . . . . . . . . . . . . . . . . . . . o . . o O . . . . . . . . . . . . . . . . . . . . . . . . . . . . . . . . ",
"c c c c c c 6 . . . $ l c c X X . . . . . . . . . . o $ h c v O . . . . . . . . . . . . . . . . . . . . . . . . . . . . . . . . ",
"%.%.%.%.%.%.B . . . 7 %.%.%.% . . . . . . . . . . . o 7 $.$.%.& . . . . . . . . . . . . . . . . . . . . . . . . . . . . . . . . ",
"%.%.%.%.%.%.C X . . 7 %.%.%.& . . . . . . . . . . . . 6 %.%.%.& . . . . . . . . . . . . . . . . . . . . . . . . . . . . . . . . ",
"B B C C V V 7 O . . 7 %.%.%.= . . . . . . . . . . . o 7 %.%.%.& . . . . . . . . . . . . . . . . . . . . . . . . . . . . . . . . ",
". . . . . . . . . . 7 %.%.%.& . . . . . . . . . . . . 6 %.%.%.= . . . . . . . . . . . o . . . . . . . . . . . . . . . . . . . . ",
". . . . . . . . . . 7 %.%.%.& . . . . . . . . . . . o 7 %.%.%.& . . . . . . . . . . . 0 @ . . . . . . . . . . . . . . . . . . . ",
". . . . . . . . . . 7 %.%.%.% X . . . . . . . . . . . 7 $.$.%.& . . . . . . . . . . . ! ! S < X . . . o . . . . . . . . . . . . ",
". . . . . . . . . . 7 %.%.%.& . . . . . . . . . . . . 6 $.$.%.& . . . . . . . . . . . ! ~ ~ ~ H s # . o . . . . . . . . . . . . ",
"h h h h h h . . . . 7 %.%.%.% X . . . . . . . . . . o 7 %.%.%.$ . . . . . . . . . . . S ! ~ ! ! ! ! S 4 . . o . . . . . . . . . ",
"$.$.$.$.#.$.. . . . 7 %.%.%.$ X . . . . . . . . . o o 6 %.%.%.% . . . . . . . . . . . o % d H ! ~ ! ~ ~ H d % o . . . . . . . . ",
"$.$.$.$.$.$.X . . . 7 %.$.%.$ . . . . . . . . . . . . 6 $.$.$.& . . . . . . . . . . . . . . . , n ! ! ~ ~ ~ ~ D 0 o . . . . . . ",
"P P P K P K . . . . 7 $.$.%.& . . . . . . . . . . . . 6 $.$.$.& . . . . . . . . . . . . . . . . o o q F ~ ! ~ ~ ! H , o . . . . ",
"X X . . . . . . . . 8 $.$.$.$ o . . . . . . . . . . X 8 $.$.$.= . . . . . . . . . . . . . . . . . X X X % d ! ~ ! ~ 0 o . . . . ",
". . . . . . . . . O 7 $.$.$.% . . . . . . . . . o . O 8 $.$.$.& . . . . . . . . . . . . . . . . X . X % d H ~ ~ ~ ~ 0 . . . . . ",
". . . . . . . . . . 8 %.%.%.% X . . . . . . . . . . . 6 $.$.$.& . . . . . . . . . . . o o o O + o w D ! ~ ~ ~ ! H g o o o o . . ",
". . . . . . . . . . 6 %.%.%.% . . . . . . . . . . . o 6 $.$.$.= . . . . . . . . . . . o o o < g J J ~ ~ ! ! D 0 o o . . o o . . ",
". . . . . . . X . . 2 %.%.%.% X . . . o . . . . . . o 6 %.$.%.$ . . . . . . o . . . o % s G ~ ~ ~ ~ ~ H s % . . o . . . . . . . ",
". . . . . . X . . . 2 %.%.%.$ X . . . o . . . . . o o 6 %.%.%.% . . . . . . o o . . o ! ~ ~ ~ ! ! S 5 o . . . . o o . . . . . . ",
". . O . . . . X . X 6 %.%.%.$ X o o . O o o o o . . o 6 $.$.%.$ . o o . o o o o . o . ! ! ! G s # o . . . . . . . . . . . . . . ",
" .[ } } } [ U X X X 8 %.%.%.| | } } [ | { { { | 6 . o 7 %.$.%. .{ { { { |  .{ | { 6 o G S , o o o o . . . . . . . . . . . . . . ",
"%.%.%.%.%.%.[ . . . 8 %.%.%.%.%.%.%.%.%.#.$.%.%.8 o o 6 %.%.%.%.$.$.O.$.$.$.$.$.$.8 o o . . . . o . . . . . . . . . . . . . . . ",
"%.%.%.%.%.%._ X . . 6 %.%.%.%.%.%.%.%.%.%.%.$.O.8 o o 6 %.%.%.%.$.$.$.$.$.$.$.$.$.7 . . . . . . o o . . . . . . . . . . . . . . ",
". . . . . . . . . . . . . . . . . . . . . . . . . . . . . . . . o o . . . . . . . . . . . . . . . . . . . . . . . . . . . . . . ",
". . . . . . . . . . . . . . . . . . . . . . . . . . . . . . . . o o . . . . . . . . . . . . . . . . . . . . . . . . . . . . . . ",
". . . . . . . . . . . . . . . . . . . . . . . . . . . . . . . . o o . . . . . . . . . . . . . . . . . . . . . . . . . . . . . . ",
". . . . . . . . . . . . . . . . . . . . . . . . . . . . . . . . o o . . . . . . . . . . . . . . . . . . . . . . . . . . . . . . ",
". . . . . . . . . . . . . . . . . . . . . . . . . . . . . . . . . . . . . . . . . . . . . . . . . . . . . . . . . . . . . . . . ",
". . . . . . . . . . . . . . . . . . . . . . . . . . . . . . . . . . . . . . . . . . . . . . . . . . . . . . . . . . . . . . . . ",
". . . . . . . . . . . . . . . . . . . . . . . . . . . . . . . . . . . . . . . . . . . . . . . . . . . . . . . . . . . . . . . . ",
". . . . . . . . . . . . . . . . . . . . . . . . . . . . . . . . . . . . . . . . . . . . . . . . . . . . . . . . . . . . . . . . "
};
