/* XPM */
static char *e8bb51f7b3ce4bddfdbd8aced4e92111urnivSXzs55WfEI9[] = {
/* columns rows colors chars-per-pixel */
"64 64 198 2 ",
"   c #6E8E9D",
".  c #708F9F",
"X  c #759697",
"o  c #799793",
"O  c #769894",
"+  c #7C9B95",
"@  c #73939E",
"#  c #78959B",
"$  c #77989C",
"%  c #7A9B9D",
"&  c #7EA29D",
"*  c #6F8EA0",
"=  c #718FA1",
"-  c #7594A2",
";  c #7896A5",
":  c #7699A3",
">  c #7B9CA4",
",  c #7694A9",
"<  c #7997A9",
"1  c #779BAB",
"2  c #7B9CAA",
"3  c #7EA1A4",
"4  c #7EA2A9",
"5  c #7EA1B1",
"6  c #819F9B",
"7  c #83A596",
"8  c #82A59D",
"9  c #89A79F",
"0  c #85AA9D",
"q  c #8CAD9D",
"w  c #91AF98",
"e  c #8EB395",
"r  c #8EB39E",
"t  c #92B49F",
"y  c #95BA9F",
"u  c #9ABC9E",
"i  c #809EA2",
"p  c #819EAB",
"a  c #83A4A4",
"s  c #8BA5A5",
"d  c #85A9A4",
"f  c #8AACA5",
"g  c #83A5AB",
"h  c #89A7AB",
"j  c #86AAAB",
"k  c #8BACAB",
"l  c #93ABA6",
"z  c #96ABA8",
"x  c #94ADAD",
"c  c #8DB1A4",
"v  c #8DB1AB",
"b  c #92B5A4",
"n  c #98B5A7",
"m  c #96BAA4",
"M  c #9ABDA5",
"N  c #92B4AC",
"B  c #99B3AB",
"V  c #96BAAB",
"C  c #9BBDAB",
"Z  c #83A4B1",
"A  c #86A9B1",
"S  c #8BACB2",
"D  c #8BAAB8",
"F  c #92AEB2",
"G  c #8DB1B2",
"H  c #8EB5B7",
"J  c #93B4B2",
"K  c #9CB4B4",
"L  c #95BAB3",
"P  c #9BBCB3",
"I  c #92B5BC",
"U  c #9BB7BC",
"Y  c #95BABB",
"T  c #9CBCBA",
"R  c #A3B7B5",
"E  c #A4BDB5",
"W  c #A1B6B9",
"Q  c #A3BCBC",
"!  c #ABBFBD",
"~  c #A2C39E",
"^  c #BDD99F",
"/  c #9EC2A6",
"(  c #9DC1AB",
")  c #9EC3B2",
"_  c #9CC3B9",
"`  c #A2C5A5",
"'  c #A7CAA2",
"]  c #AACCA5",
"[  c #A2C4AC",
"{  c #A9C6AD",
"}  c #A5C9AC",
"|  c #AACCAC",
" . c #B0CEAC",
".. c #AFD3A5",
"X. c #AED1AB",
"o. c #B3D6AA",
"O. c #BAD9A8",
"+. c #A2C4B3",
"@. c #A4C9B4",
"#. c #AACCB2",
"$. c #A3C4BA",
"%. c #ABC3BC",
"&. c #A5CABA",
"*. c #AACBBE",
"=. c #B3C4BF",
"-. c #ADD1B5",
";. c #AFD4B9",
":. c #B2D3B3",
">. c #BADAB5",
",. c #B3D4BA",
"<. c #C0DDA8",
"1. c #C1DEB3",
"2. c #C2E1B3",
"3. c #91B0C3",
"4. c #9ABCC2",
"5. c #A5BCC0",
"6. c #ABBFC3",
"7. c #A3C4C2",
"8. c #ACC3C4",
"9. c #A4CAC1",
"0. c #A8C9C7",
"q. c #ABC7CA",
"w. c #ABCACB",
"e. c #B4C4C5",
"r. c #B2C9C6",
"t. c #BACBC6",
"y. c #B3CACB",
"u. c #BBCBCB",
"i. c #ADD4C8",
"p. c #B1D1CD",
"a. c #BED3CE",
"s. c #B2CED2",
"d. c #BBCFD2",
"f. c #ACD9D1",
"g. c #B3D3D2",
"h. c #BAD2D2",
"j. c #BDD4DB",
"k. c #B5DED9",
"l. c #BAD9DA",
"z. c #C2CFD1",
"x. c #C3D3D4",
"c. c #C3D6D6",
"v. c #C9DAD5",
"b. c #C3DADA",
"n. c #CCDCDB",
"m. c #D2DCDC",
"M. c #D4E2DC",
"N. c #C5DDE3",
"B. c #CADEE1",
"V. c #D2DEE3",
"C. c #C7E3E4",
"Z. c #CBE3E5",
"A. c #CEE6EA",
"S. c #D4E4E4",
"D. c #DAE5E4",
"F. c #D7E8E5",
"G. c #D9E9E6",
"H. c #D5E5EB",
"J. c #DCE6EA",
"K. c #D6EAEA",
"L. c #DCEAEA",
"P. c #D6EDF2",
"I. c #DCEDF2",
"U. c #DFF1F2",
"Y. c #E1E4E6",
"T. c #E4ECEC",
"R. c #EDEDEE",
"E. c #F0EEEF",
"W. c #E6F1EE",
"Q. c #EDF4EC",
"!. c #F3F5EF",
"~. c #F0FBEF",
"^. c #E3EEF0",
"/. c #E9EEF1",
"(. c #E5F3F4",
"). c #ECF3F4",
"_. c #ECF8F6",
"`. c #E4F4F8",
"'. c #EDF5F9",
"]. c #EDFAFC",
"[. c #F3F5F4",
"{. c #F9F6F6",
"}. c #F5FAF5",
"|. c #FAF9F7",
" X c #F2F6F9",
".X c #FAF6FA",
"XX c #F6F9F9",
"oX c #F5FBFC",
"OX c #F9FAF9",
"+X c #FBFBFB",
"@X c #FAFCFB",
"#X c #FEFDFB",
"$X c #F9FAFE",
"%X c #F8FBFE",
"&X c #FAFBFE",
"*X c #FBFCFC",
"=X c gray99",
"-X c #FCFCFE",
/* pixels */
"-X-X-X-X&X&X&X&X&X-X-X-X-X-X-X-X-X-X-X-X-X-X-X-X-X-X-X-X-X-X-X-X-X-X&X&X&XXX&X&X$X$X$X&X&X&X&X@X&X@X-X&X&X&XXX-XoX&X&X&XXX-XoXoX",
"-X-X-X-X@X|.}.[.|.-X-X-X#X-X-X#X-X-X-X-X-X-X-X-X-X-X-X-X-X-X#X-X#X#X&X&X&X&X&X&X$X$X$X&X&X&X#X-X-X@X@X-X@X-X-X@XoX-X&X-X-X@X-X-X",
"-X-X-X#X{.[.[.[.OX-X#X#X#X-X#X-X-X-X-X-X-X-X-X-X-X-X-X-X-X#X#X-X-X-X@X&X$X$XoX&X$X$X$X&X&X=X&X&X@X-X-X@X-X&X&X@X-X-X&X@X-X@X@X@X",
"-X-X-X#X[.[.[.XX-X-X-X-X-X-X#X-X-X-X-X-X-X-X-X-X-X-X-X-X-X-X-X-X#X@X@X&X$X$X&X&X$X$X$X&X=X&X=X&X&X@X-X&X@X&X-X@X@X@X-X@X&X@X-X&X",
"@X-X-X#X[.Q.!.OX-X-X-X#X-X#X-X-X#X-X-X-X-X-X-X-X-X-X-X-X-X-X-X#X-XOX.X$X$X$X$X$X&X$X$X&X@X-X-X@X-X@X&X-X@X@X@X-X-X-X@X-X-X@X&X-X",
"@X-X-X@X[.R.[.@X-X-X#X-X#X-X-X#X-X-X-X-X-X-X-X-X-X-X-X-X-X-X-X#X#X#X&X&X$X$X$X$X&X&X$X&X-X@X@X@X@X&X-X@X&X-X&X@X@X-XOX-X@X-X-X@X",
"@X-X-X#X[.[.[.@X-X#X#X-X-X-X-X#X-X-X-X-X-X-X-X-X-X-X-X-X-X#X-X-X-X#X&X&X$X$X$X$X&XoX&X&X@X@X@X-X&X@X-X@X-X-X&X-X-X&X-XoX&X@X@X&X",
"#X-X-X-XOX|.XX@X-X-X-X-X#X#X-X-X-X-X-X-X-X-X-X-X-X-X-X-X-X-X-X#X#X&X&X$X$X$X$X$X&XoX&X@X@X-X@X-X@X-X&X-X@X@X-X@X@X-X@X-X@X-X@X-X",
"-X#X-X-X@X@X@X-X#X-X#X-X-X-X#X-X-X-X-X-X-X-X-X-X-X-X-X-X-X-X#X-XOX-X-X&X&X&X&X&X&X&XXX&X@X@X-X@X@X-X@X-X-X@X-XOX-X@X@X-X@X@X-X@X",
"F.G.G.L.W.).}.@X-X#X#X#X#X#X#X#X-X-X@XOX#X-X-XXX).(.oX[.&X-XOX{.{.OX-X#X@X-X&XOX&XOX&X-X-X-X-X-X-X-X@X-X-X-X-X-X-X-X@X-X-X-X-X-X",
"_ Q Q 8.r.a.n.S.T.!.!.|.#X#X#X#X-X#XoX&XOX.X.X/.b.d.F.J.).XX[.[.[.OX-X-X-X#X#X#X&X-X.X-X#X@X-X-X-X@X-X-X-X@X-X-X-X-X-X-X-X-X-X-X",
"a a 6 s s N W ! t.m.M.R.[.@X@X#X-X XoX=X-X[.{.T.c.8.z.z.m.T.).).|.#X#X-X-X-X-X-X#XOX#XXX-X-X@X-X-X-X@X-X-X-X-X@X@X-X-X-X-X@X-X-X",
"3 2 3 > a s k K K W 6.u.v.D.W.[.}.W.).XX{.R.&X+XI.N.B.z.z.n.D.Y.).OX.X-X-X#X#X#X#XOX#X-X-X#X-X@X-X-X-X@X-X-X-X@X-X@X-X@X@X@X@X-X",
"4 4 4 3 2 4 g h S h h k K %.a.v.M.M.T.).).XX=X XV.j.`.H.c.v.n.S.T.OX&X=X-X-X-X-X-X-X#X-X-X-X#X-X-X-X@X@X@X#X-X#X-X#X-X-X-X-X-X-X",
"5 4 2 4 4 4 4 g g Z g g s h l n B W =.z.D.XX Xn.U F H.H.y.r.r.e.x.R.!.=X#X-X-X#X-X-X-X-X-X@X-X-X-X@X-X-X@X-X-X-X-X@X-X-X-X-X-X#X",
"5 Z 5 5 j Z Z g g g 4 g j k s 8 o o 7 l =.m.m.! s h 6.8.K U Q B R m.Y.=X-X#X-X-X-X-X-X-X#X-X-X@X-X#X-X-X-X-X-X@X#X-X#X-X@X-X@X@X",
"4 2 4 4 4 3 > 3 > : > 3 j S S g 3 d N P $.%.E l i k 5.y.8.g.w.P %.L. XOX-X-X-X-X-X-X-X-X-X-X#X-X-X-X#X@X-X-X@X-X-X@X@X-X-X-X-X#X",
"Z Z Z g g g 3 3 3 3 > > 3 4 Z g 4 3 L &.*.E E B v L 5.s.w.l.g.J Q /.-X#X#X#X-X#X-X-X-X-X@X-X#X-X-X@X-X-X-X-X@X-X-X-X-X-X-X@X-X-X",
"g j k h g a 3 a a & d s j g a 2 3 j L $.$.[ C n n P E *.$.9.9.v W T.@X-X#X~.}.}.Q.@X{.{.#X-X#X#XOX@X#X#X-X-X@X-X-X-X-X-X-X-X-X@X",
"a g h h a a a g s 8 s h j s a g j J T $.&.+.C m m C n +.) _ ) & s d.T.OX@X!.OX!.Q.}.[.!.{.#X-X#X#X#X-X-X-X-X-X-X@X-X-X-X-X#X-X-X",
"a a a h a a a s j f k k s h h h I J L E @.[ M b t b q C ) ) v + o z e.Y.^.&XOX!.}.}._.T.R.[.-X-X@X-X-X-X-X-X-X-X@X-X-X@X-X-X#X-X",
"s a d a a a a a k k x k j s S J U x v V E M m w 0 9 q l c b b f 9 l z r.z.&X-X[.[.W.K.F.T.[.-X-X#X-X-XXX@X-X-X-X-X-X-X-X-X-X#X-X",
"j d s a d d k k k v j h s S J I J s f n C C m w 0 8 f c d d f C P n l k x Y..X.XE.V.h.b.J.'.-X&X-X-X@XoX@X@X@X-X-X@X@X@X-X#X-X-X",
"k k f d j k k v x S h h s J J J k s 9 n C [ m b d 3 a 8 d 0 d N L P J j % u.R..X&Xb.Q 7.v.^.XXoX&X-X-XoX&X-XXX-X-X@X-X@X@X-X-X#X",
"N k f d f k k v x S h h j J J N k a 8 f M ` m l 8 > $ $ h a % a h N _ L d R m.[.XXG.$.N r.D.XX-X-X-X&X).oX&XoX@X&X&X&X&X&X-X-X-X",
"J v f d d k f v k S S S k x h x k a s w m M m l 3 ; : @ > > $ % 3 3 G v L C t.M._.(.h.x Q n.].-X-X-X'.J.'.&X-X-X&X&X&X&X&XOX-X-X",
"N N f d d f f j h F F F S h f c x j j n C ` M l a < p   . @ % p 3 X & 8 E P { %.x.K.b.K J b._.@X-X&XT.n./.oX&X&X&X@X&X&X@X-X#X-X",
"8 f f x k k s h k S j f w / | #.M b n / ] ' ~ q i , @ @ $ $ ; > : : # 7 b [ C b k D 3.D F y.N.H.].(.v.a.S.[.oX-X-X@X-XoXXX[.@X-X",
"f h x j s s s k J U J P +.#.[ M M n B } o.] u 7 # = @ @ $ $ > > : ; X 8 N ) ) C v j : $ > x W 8.V.G.F.v.T.oXoX[._.[.'.[.@XoX-X-X",
"k F x s a 3 j J U L n P *.@.l 8 f c m #.:.X.~ q i p ; - @ ; : : > $ @ $ a N P P ) m 0 & a s s W u.G.U.S.T. X).'._._.L.G._.-X@X-X",
"S S p p a s J U P n b n ) N 6 + a f n } :.o.` r s p # # @ @ @ - $ - @ - > a d V ) ( ( m a + 6 l E n.L.S.^. X(.(.W.K.b.b.K.-X-X@X",
"D g p p S J U T P C n k d 6 % > > s n ( [ ` u q 6 X = = @ . @ @ @ @ @ < > > % 8 m ( } ) N 3 d f J j.(.H.'. X(.J.Z.b.i.g.C.&XoX&X",
"g p p S L _ _ ) C +.C d o - > 2 ; a f r t m m q 8 X - @ .     .   *   = , , @ % 0 b / @.9.P N c v w.B.B.H.`.`.I.B.j.0.7.f./.XX-X",
"p p h J _ &.) / C C x i @ $ ; < ; % & d r c b v j j , - . .     @ .     * - - $ a f b C $._ N & & v U U s.V.I.P.A.l.9.H H V.'.oX",
"p Z J T _ @.} / m N s # - ; , : p i 3 d f c f f j Z < , -     - - = .   = - - ; 2 s d q l n k a k v a & U b.A.N.s.0.4.G S u.I.].",
"f K $.&.&.[ / / b d % $ > p : 1 p g h d f f 7 8 > > ; - @ @ @ @ = - - - - , - , 2 i i % 6 k f d L L v 8 4.l.l.q.4.4.D 4 H 5.Z.].",
"C #.:.#.} ) / & 8 > % % : : 3 1 2 2 g a 8 7 7 % $ @ $ $ $ O X X       - - . - - ; 2 2 : % h h i d P ( / $.g.w.U 3.4.A : D 4.l.`.",
"#.#.:.#.( / ( & d > 3 a : : : 1 - : % d b f 0 & $ > @ ; % 3 a > $ - * . @ - - - ; ; > : $ 3 h h v P @.@.@.$.N h A H D 5 I w.j.I.",
",.,.;.} / c b v d 3 > 3 3 : : : : : d N L n 8 % ; 2 $ $ a s j s > -   @ * @ @ - - : : : - ; g j k b +.;.#.C q 8 3 j A D 3.s.j.H.",
",.*.} ( / b v v 3 : > : 3 : - : > > s N N N d % $ ; > > 2 3 3 > @ @   - @ @ . @ - @ , - , ; 2 h a 8 b -.,.[ q d 3 4 A I H s.j.V.",
"#.[ u M b V v d 3 1 : : : : : 4 4 g d j f f a > 4 4 j a 3 : @ @ @ @ @ - - @ @ @ @ @ - - , ; ; g % o 0 ) ,.[ q d 3 : Z Y L w.N.Z.",
"[ m t b n v j g : 1 : : - 3 4 j j g 3 % $ % 3 s j 4 k j a > @ @ @ $ : - - - - - - - - - - ; 2 2 : X 8 V [ w 6 i : - j _ _ f.C.I.",
"m t t b v c 3 4 4 2 < : 3 4 S 4 3 3 : - # $ > d v c c 4 a > ; ; ; : % ; ; : - - - - - - ; : < : @ X a k N 8 % ; - , 4 H _ k.l.A.",
"b t m m c a : 4 5 2 1 ; 4 A H 4 % : 2 , , $ > 8 0 0 & 3 2 2 > ; : $ $ 2 ; ; : - : - - @ $ > 2 - . . ; i f s 2 , , * : c ( f.7.h.",
"m m V J k g 2 2 2 : 2 j G v j 2 > : 1 1 ; $ > a c & & & 3 3 4 4 8 # X & + : < < - - : > > 2 < - . X $ s ( n f s > : X a N i.@._ ",
"m b N k g 2 2 2 > > a v J k s > 2 1 1 3 > > 3 d 4 & & & 3 d v v c d & q f 3 2 2 , : % % > ; ; - . @ % a C m q f N J s 8 d ;.-.@.",
"c c d g 2 > 2 i a h j j k f & > 2 > : : 3 g j j 4 & & & r c V m V m m ) N j 4 2 2 2 $ % > ; ; , . @ $ > 8 8 f N 7.y.$.n e o.>.-.",
"f f s a % % 3 s k S h a s a 3 2 2 3 % % 3 v H j 3 & r c ( ( m / m / ( ) N 3 > ; 2 i > % 6 i g ; - - - : : > > j L *.,.o.~ O.2.2.",
"h a a > % d f v N S s > a g i 2 4 3 & & d v v 4 3 4 c / V V m b b m ( v d & $ & 3 3 d d c 3 4 3 ; , < 2 1 1 1 : & V :.1.<.^ <.1.",
"g 2 > s d c n V N k a 8 a j j g a a d f v v d & d ( c v n V b b m ( m c c d & 3 f v L N c 3 4 1 , < 2 2 1 2 4 - X q { >.1.O.<.1.",
"2 a a d c N V L N d 8 2 h Z j p 4 a j v v c & & c _ V L C C C C m m m m m b / c b m ( v & 3 1 : , < < 2 - < 2 2 a h C { { o.<.1.",
"g a d f v V V v f d a i Z Z g g a d d v v d & r ( ) @.( [ [ / / / / y ( ( ( ( / / m y r & 3 & : : < ; ; ; ; i g Z S x k l { :.1.",
"i g a c b m c d 8 d a a Z Z g 2 d d d k d 8 0 m ) ) / ~ ~ ~ ] X.....' } ( ( ] | } / e & & : 1 : 2 2 > : 3 % @ ; 2 Z g h h b [  .",
"% 3 j G G j 3 3 s f a 3 h j g g 4 5 4 3 a c ( @.) ( / / } } ] -.X.:.:.-.o.o.o.o.../ e & 4 : & & 0 f 3 3 $ > 4 3 2 3 3 3 3 9 n +.",
"L k d d 3 3 d j A k v d 3 d j S 4 j j d f b ( ( ( m / / / ` ] ] | X.| | X.......X.( m 3 : & & r V L v Z 3 > 4 3 3 a j d a & f C ",
"*.) d & 3 3 j A S N J L d 3 A H g g j k c m m m / y / m / / / } ` ` ` } } ] X.X.-.) ( c & c ) ) ) N j 4 4 > 4 3 3 j v j a > a b ",
"_ ( / 3 d 4 j j k k L v 4 3 v H j a d N n C m m y ( @.( ( ( ( / ` / / +.[ [ [ ` ) ) ( c ( ) &.&.( d 3 3 : 4 3 3 g j v j 3 4 4 v ",
"( ( c v c v d 4 j j d d 3 c 4 v v d j N P ( ( C ( ) @._ ( / ( m M / ( C [ [ M M c ( c c ( ( @.) v 3 3 4 4 4 3 3 j j G k 4 5 4 v ",
"& ( ( G v d 4 j j k 3 & j v c c P J f N C C ( C C ) L V v c q c c V ( C [ C m b c r & r / ( ( c 3 3 4 5 4 3 3 3 3 j G k 3 5 4 V ",
"4 4 v v 3 v v v G v 4 d H ) v L $.Y s f v b V N N v c 4 3 3 & a k v L ( +.+.C m ( / y 3 v c & & & 3 4 4 4 4 j 4 3 j j j 3 4 4 V ",
"4 4 4 4 d v L L v j d k v V N _ *.T S k f k N N k a 4 4 4 4 3 4 j j k V E [ C C ( / c ( ( c c & 3 4 4 3 4 j A j j j j j 4 3 d ( ",
"4 4 4 4 j H H v c 3 j j 4 0 v V P L L J k v v N k a g j g g g g 4 3 d r b n n n c ( / ( v c 3 & j j j 4 4 A A j j d j j d 3 c / ",
"4 : 3 4 j j j c 4 3 j D k j d c c c V L L N k f v L v v k f f d d a a d d d j v ( H _ ( v 4 4 4 4 j 4 3 j A j j c d d 3 g > v [ ",
"3 : 4 ( v v 4 3 3 3 k J v c c V V M C C N x k f N P L L J J J N v v v k j d j d v 4 4 v 3 3 4 4 3 4 3 3 4 4 j d d d d g 4 4 G +."
};
