/* XPM */
static char *_809727f39b7402ddad327ef5ebf81f12RxoelezpyHZKVmm[] = {
/* columns rows colors chars-per-pixel */
"64 64 83 1 ",
"  c #040403",
". c #090605",
"X c #0A0906",
"o c #0D0C0A",
"O c #110E0B",
"+ c #0F100C",
"@ c #13120E",
"# c #18150F",
"$ c #161511",
"% c #191613",
"& c #171813",
"* c #1B1A15",
"= c #1E1D19",
"- c #201D17",
"; c #211E1A",
": c #1F201A",
"> c #24221D",
", c #28251F",
"< c #262521",
"1 c #292622",
"2 c #272822",
"3 c #2C2A25",
"4 c #2E2D29",
"5 c #312D27",
"6 c #312E2A",
"7 c #2F302A",
"8 c #313027",
"9 c #34322C",
"0 c #39352E",
"q c #37382E",
"w c #3B392E",
"e c #363531",
"r c #393631",
"t c #3C3A33",
"y c #3B3D32",
"u c #3C3C31",
"i c #3E3E33",
"p c #3A3834",
"a c #3A3934",
"s c #3B3935",
"d c #3A3A35",
"f c #3C3A35",
"g c #3C3D35",
"h c #3D3F37",
"j c #3D3E38",
"k c #403F31",
"l c #403C35",
"z c #413D36",
"x c #413E38",
"c c #423E39",
"v c #443F3A",
"b c #404035",
"n c #404335",
"m c #424137",
"M c #444334",
"N c #474637",
"B c #414338",
"V c #43413B",
"C c #44423B",
"Z c #43453B",
"A c #454439",
"S c #42423D",
"D c #44413C",
"F c #484738",
"G c #49443E",
"H c #4B4B3C",
"J c #4B4B3D",
"K c #474740",
"L c #4B4741",
"P c #4A4941",
"I c #4E4A42",
"U c #4F4D45",
"Y c #504D43",
"T c #505049",
"R c #535048",
"E c #515348",
"W c #54514B",
"Q c #55554A",
"! c #57554D",
"~ c #57574D",
"^ c #58564C",
"/ c #58554F",
"( c #5B5B52",
/* pixels */
"           XXXXXo.OO*=;;=&$o+&*::*&&:&&+oo++&&o@@ooooooOOo.XooX ",
"XooO@&+$+$&><<><<;19appxe4<<:,477222e74:==:7jjnrq49yp426p9<964*O",
"99qwnAmiyywNPg49lrlxxrree44249q973<<44449jSLEE~URYE!EvDR(/T/TSe*",
"mmJJFHNBMmmwP4==6lrlr66533322q8<>:::<<2<7jSjgZn90CCraeaDT/IYQES4",
"qgx099944555r2**<36xse64<3643ew52<<<<2424epasse<3961<-<19xvU//S4",
"1464194<>>><<*;>=%<6ee66249e9wq922<2<<4466ppp664463>;=>><6xW!Ye>",
"<136443>>><<-O%**$=<<<4644e60w3><<<::<24eee41<<<44;%*<11>>4aSL4<",
">>19ay921433;%***$****>1<<44,,>#=&+$++&<<<<=<=<44;##$;<11;>>33=<",
"4>>2hGe394>>=*251;**%$$=;;15;%;;<&ooOooo$%=%;<6a6;;;1;>1331<<<==",
"q4>1ae434>*#o@>61*%*$Oo%%#%%%#;1<<&$%$*%=<144exD6116611r439641<%",
"64qSg414<<>@oo#;%%O%$OO%##OOOO%%==&&==46411446xa666r66r66esa64;=",
"><292=;;>2<&#*=>;%%O%%*@OOOO#O%%@@&==<63<1<<16r65rrr6cv66sDsa6;<",
"**&**&***<1;>;=>=OO%*<1%OOO#%%;;=$%%>46346666666rr611vc6evvse4==",
"<=@@=;<=>432,>&%%OO%%=1%OO#*-;1,=$%$=43466646646vr116vr6pvvs6<=<",
">=@@=363396631>;%O%;%O;%#%#-;,1;=$o$=3<<<<4141;6r666cv66vvrxe1=;",
"@ooO$=2<233636506111;%OO%%%%;11,1=*%<64<4<444;;46666vlrxKvp614<=",
"#X@$+@#&:<<22<;155,--;;;-###<6r61<==6611566606666666rrcGclG663%%",
"&@*=&@O&<:*&<;;1655;---;%#%-<3r611<<pe146651369561111166506lvl;;",
"&=14>=&=<2=*;,1600511-----;>>1r61643pp66963556l0r6111161150rlr<;",
"@;991>=>34>*><156511111;;>;>>36111666pe6ee6696lvvr111616666r5z1%",
"@&=:*=>2<>=*->->11,5335,>-;1>,,%;1116r6636rlr6xvr1<<r65599r6161%",
"&**$&>>=&#@@##**1;,1133,1%;,;%--*<>;llpr1rx6e99r6116v60rk9ss661*",
"<<=$>2:&@o@%*&#>3,1,11,--;1,;,11>;%1vl661lxlee4e116cc6vvz0sr693;",
"<***<2*###&*>*#-1>;;>,;;%;51161;<;@1ll616ll6444e661656vlk0r63s66",
"**=<>=*>>-*>>##>;-;--->>;1956l,;;=$;rr664e4343641>>560r651450iiq",
"&*=<&=>388>*>#**##*%%-;--66>16,*;=;1llx64<<<e643>>19er65339tmtwm",
">><:#>39w8>##>>>-;*#%%*%%161,5,->11eLLr6<<44ee4<566r06119stsq9qm",
">=&o+>83,,>:#>,5>>;-;;;-;;6156554e3lLv614<4444<466696;*2599699qZ",
">$+oo*>>,>*#-,,,1--;>3111155ll6356;lvr3642444<4e66663;;333<<499y",
">$&&=2>2,,--,3885;;1355>,111lxl11;*6r111<2<<3;463661335533<22799",
">**:>3348>,,388,511355>;,,1,6l511;-5661;=333<>331114696<<4432472",
":$&=><3<:*-#,,,,>11155>>13ll66,163656l6;<433<2331>>6e63><<22>37:",
":@+*>352-,,,,55,,5556555566ll5;16633rl6122:2274222446631>;;><33$",
"&&@*=>2>,,5,l,,,,,;;1555>,1l65>13116rlx342227e22:<<4551111;><<<X",
"#&@#&=>=---,,,,,,,,,5,51,>1511163316err1222444:2<<<411665411<<& ",
"@:===>><,--,,,l,,,,,56006111,155311rrlp6447e4<:<<<3<<4696564<<+X",
":2,2>231,,--,55,,,;;56l651531666344qvlr5277742>><<<<<31533432:++",
",2:,;23<-,5,5,115,5566111l6555955948xxe4222432>>><><44>;>14e4>++",
"2:::*;-#-;,5l-,55,556666555116663849q9r94:<22222<<<<6e3;*;<43*oX",
"7:::--%-;,-,1,,,--;,56165511656153499799e22244233344466>;*=<=+  ",
":::&&:&:;%%151%%#-,,,,-,3561616>35659e97433342:21136631<<<>;*OX.",
":+&&+&:&%O%66,-##,5-,,,,1155111>>342961<:32<3>=<>>13311<<>;*;O.O",
":@$+&&*&O%;61,;;---#%-,,>>,1151;<114994>:<443<>3<1466644311>;%X@",
":&&@&&&&#;>1;;,-##O#####%%;159>;25>364222243:<31136646431661<#.%",
":::&**::;;11;11--##O####OO;133<<9r31444<3442>344444<<;;>>4<>;O.*",
"23333>1<;<31111;--%-%--#%-,;1136a943442=:447347941311>>>><><;o.*",
"442441743351,,,;;-,,1;-%-<<--=>;333499<=<447349944334<<<444e<oO=",
"e72<>4746666111156555,-,>>-OOOOO*;<4q41>4322279711<<34446666;o$>",
"441:>2<<23<;;>11331111111-%#@$O.+@&:722<2<274742;<<<47e41134=o$<",
"**>:2=&&&$ooo@$$**@@#-;,1-%%=*@OXoo+:::277777734324419a91<99=$=3",
"o o+$oXX.  ...o.......#%#O-;=%%%@oX+&:*:>222>:=<49aaaa9<<2ea>$=4",
" X  X      ..oX.......o..o,1;*%%:&&*&*:&&&++X+o+:2244<&XXo&>$$=4",
"      ..  . oO. ..oOOoOo.#1963=%:2:&$&&&+      +&$o++X     .O=<6",
" X    X  .oo@o..oO#@OOOOOO;666>>37,&&$oX     oooXX       ooo@=3a",
"      . Xo@$$ooOO%%%OO#OoO*133>>24::+o       .oo         o+@&=3j",
"       o$$@OoooO%;%%O%%#OOO*=*$=<:&&o        .ooX       o&&=:>>4",
"   .. .XOooooooO*---**;#O*$X.    X          .++$o oooo++$$=4<<=<",
" ..XXooooXo#@oO->;><;;;;==&.       +o     ...ooo  ooo++&&=;4<<44",
"oOOO@O#O@@@%--#,334431661;=oo  oXX.+++oXoooooo..  o$$&&=3344<4ee",
"==*%####*>>&-;;36666635511=&@@+=&&+++$++$o++$++o  o&===<eSSa4aae",
"12;*##%#-<3>;;156443;;*=;1<=$@&=>**&$&$&=====$$+ooo&=<<e6pa<<eja",
">3,--;---;1<,555<341=%@*;1>>==;=$&$++&+$=:<<==&+o@&&=<ea4<4==4SK",
">3,311;;%->;****$&=&@@+$&$$$&>&+XX     Xoo$+$$+  ooo$=<<&==+$<4e",
"@*:*=$O...o..o      . X . .. X.                       oo  o  ooo"
};
