/* XPM */
static char *_ad63a43601f456ba78d55dcc9ebbd94BZAOpAuLy2BytUxr[] = {
/* columns rows colors chars-per-pixel */
"64 64 256 2 ",
"   c #0C0604",
".  c #170905",
"X  c #1B140C",
"o  c #19140B",
"O  c #1D1612",
"+  c #130F0F",
"@  c #260E05",
"#  c #2B1305",
"$  c #24140C",
"%  c #2B150B",
"&  c #2C1A0E",
"*  c #241508",
"=  c #341A0C",
"-  c #3B1D0C",
";  c #361707",
":  c #241B13",
">  c #2C1B13",
",  c #251D19",
"<  c #271815",
"1  c #331C14",
"2  c #391D13",
"3  c #351D19",
"4  c #340D01",
"5  c #3B210D",
"6  c #2B241B",
"7  c #292218",
"8  c #342214",
"9  c #3B2215",
"0  c #34231B",
"q  c #3B241B",
"w  c #3D2A1D",
"e  c #352B1C",
"r  c #38311F",
"t  c #2C2723",
"y  c #332C23",
"u  c #3C2B23",
"i  c #372623",
"p  c #3C342A",
"a  c #3E392D",
"s  c #393227",
"d  c #3E3634",
"f  c #431C0A",
"g  c #451B08",
"h  c #451E17",
"j  c #43220D",
"k  c #4C240E",
"l  c #492609",
"z  c #54240D",
"x  c #5A280C",
"c  c #442314",
"v  c #4C2414",
"b  c #452A15",
"n  c #4D2914",
"m  c #43261B",
"M  c #442B1D",
"N  c #4C2B1C",
"B  c #4B251A",
"V  c #532613",
"C  c #532B14",
"Z  c #5A2C15",
"A  c #532C1C",
"S  c #5A2D1D",
"D  c #55261B",
"F  c #4C321D",
"G  c #44301E",
"H  c #55321D",
"J  c #5C321C",
"K  c #593519",
"L  c #63290F",
"P  c #622D1A",
"I  c #63341D",
"U  c #6C351C",
"Y  c #6C3A1C",
"T  c #66371A",
"R  c #763C1D",
"E  c #442D22",
"W  c #4B2D23",
"Q  c #472B27",
"!  c #542E22",
"~  c #5A2E22",
"^  c #443224",
"/  c #4C3224",
"(  c #45342A",
")  c #4C342B",
"_  c #4B3A2B",
"`  c #493A28",
"'  c #543323",
"]  c #5B3423",
"[  c #5D3A25",
"{  c #53352B",
"}  c #5A352B",
"|  c #543B2C",
" . c #5C3B2B",
".. c #543A25",
"X. c #473C34",
"o. c #5B3C32",
"O. c #553C33",
"+. c #652E22",
"@. c #623524",
"#. c #6A3522",
"$. c #633A24",
"%. c #6B3B24",
"&. c #633C2B",
"*. c #6A3D2B",
"=. c #65352A",
"-. c #733C24",
";. c #743D2B",
":. c #773A23",
">. c #663E34",
",. c #73421B",
"<. c #59422C",
"1. c #4B4334",
"2. c #4B4538",
"3. c #554333",
"4. c #5C4333",
"5. c #544B3C",
"6. c #5B4C3B",
"7. c #574837",
"8. c #534936",
"9. c #6C4225",
"0. c #64422D",
"q. c #6B422C",
"w. c #674529",
"e. c #744325",
"r. c #73442B",
"t. c #7B442B",
"y. c #7B4B2D",
"u. c #784729",
"i. c #634232",
"p. c #6B4332",
"a. c #634A35",
"s. c #6C4934",
"d. c #654B3B",
"f. c #69483B",
"g. c #734433",
"h. c #734C35",
"j. c #7B4C34",
"k. c #744C3B",
"l. c #7B4E3A",
"z. c #794533",
"x. c #69553D",
"c. c #74533C",
"v. c #7B523C",
"b. c #795234",
"n. c #574D43",
"m. c #5B5343",
"M. c #5F564E",
"N. c #6A4D41",
"B. c #734D43",
"V. c #635443",
"C. c #6C5B44",
"Z. c #6C5C4B",
"A. c #675847",
"S. c #725542",
"D. c #7C5543",
"F. c #7C5B43",
"G. c #755B49",
"H. c #685D52",
"J. c #775D52",
"K. c #6D624C",
"L. c #73634D",
"P. c #7C634D",
"I. c #796447",
"U. c #6C6454",
"Y. c #746553",
"T. c #7A6554",
"R. c #7B6B54",
"E. c #7C6C5A",
"W. c #756A57",
"Q. c #7C715C",
"!. c #7E7156",
"~. c #7C7363",
"^. c #844C2C",
"/. c #854729",
"(. c #834C33",
"). c #884E37",
"_. c #8A5434",
"`. c #83543B",
"'. c #8C5C3C",
"]. c #865537",
"[. c #955938",
"{. c #8E522B",
"}. c #95623B",
"|. c #A4643E",
" X c #A05F39",
".X c #845641",
"XX c #845B43",
"oX c #8B5C43",
"OX c #835D4B",
"+X c #895C47",
"@X c #935C42",
"#X c #975E48",
"$X c #825649",
"%X c #84634D",
"&X c #8C644C",
"*X c #896548",
"=X c #936244",
"-X c #9B6344",
";X c #93644C",
":X c #9A6A4C",
">X c #97674B",
",X c #886955",
"<X c #946B53",
"1X c #9C6C53",
"2X c #946854",
"3X c #83735B",
"4X c #877459",
"5X c #9C745B",
"6X c #987458",
"7X c #9E704E",
"8X c #A56B47",
"9X c #A87759",
"0X c #B37B56",
"qX c #AB704B",
"wX c #837462",
"eX c #8B7B64",
"rX c #8C7D6A",
"tX c #867867",
"yX c #957A65",
"uX c #91776C",
"iX c #A27D63",
"pX c #A97B63",
"aX c #AD7C67",
"sX c #8D816B",
"dX c #94826C",
"fX c #9A876B",
"gX c #8C8576",
"hX c #948573",
"jX c #9A8C7A",
"kX c #998975",
"lX c #9B9176",
"zX c #A7856A",
"xX c #B68667",
"cX c #A58B75",
"vX c #A3927D",
"bX c #A89678",
"nX c #B8987A",
"mX c #B08D79",
"MX c #AB8151",
"NX c #C18F71",
"BX c #A89784",
"VX c #B69A85",
"CX c #A98E83",
"ZX c #AEA087",
"AX c #B7A48A",
"SX c #B6A694",
"DX c #B3AA96",
"FX c #9F9387",
"GX c #C8A68C",
"HX c #C5AC97",
"JX c #C4B29B",
"KX c #D5AD8C",
"LX c #C5B7A4",
"PX c #D5B7A2",
"IX c #CFC4B5",
"UX c #E6D9C6",
/* pixels */
"=X0XKXcXd.c.2XL.tX% q Z.o.a.,X:XxX&XXXv.F.,Xv..XF Y.lXcX<X6XzX+X&XF.b | ,Xp. .OXyX9XI [ 0.M q 0 0 u < N.,XN F / [ [ p.k.r.$.q.N ",
"2Xp.a...T.VX<XI.G.S.G.6X+X5XxXaX9XxX;X1X'.v.*X[  .K.6.C.%X' n 4.i.i.4.>.p.N.d.Q - &.&.s.M 5 / | 2X5XyXzXyX&X6X>Xk. . .s.*.C H j ",
",Xf.%XD.iXCX%.a.yX2X1XmXzX5X1XoX;X@X=X9X;X9XzXXXw.x.C.4XS.B.yXD.K c.iXiXl.0.i.T.OX&.j n N  .a.a.s.s.w.F G.,Xw.r.%Xv.s.J c m 6. .",
"@ N S.6XzXyXk.n.uX5X;X<Xv.F.OXc.[ v.&X`.:X<XK *XF 4XsX6Xf.] .X'.KXxX7X6XzXiXF.>X6X*XXX,XOX,XF.k.[ [ &X1X6X9X'.8X9X7X=Xb.A h {  .",
"H.J.a.d.S.x.N.2.V.c.l.OXd.i.p.[ v.&Xl.r..X+X0.$.F sX!.4X4X'.@X).).@X9X`.0.c.k.l.=X%.h.v.v.iXzX<XI.&XaX0X8XqX:X#X1X8X8X-Xj.>.g.l.",
"yX%X4.| 4._ o.J.hXS.D.2Xi.b.2XOX(.1X9X;Xq.r..X'.w.R.Q.4X.X[.8Xr.>.=.>.@.&.B.} c &.[ H H &.k.k.2XXXv.] %.j.;Xl.g.*.(.l.r.J %.q.u.",
"w.[ <.J.wXS.>.J.uXB.OX,Xk.2X&Xq.$X2Xb.Z 9.v.y.nX+XT.7.%X;X`.%.D &. .} ' } / E o.( ) q w O.O.N c.h.0.H i.N J [ A } ] H &.} ' N $.",
"W o.<.f.B.i.p.! Q % @ >.VXGXoXD.2X#XoX+X>XpX;X:X<.fXbXfXi.|  .p.j M ) ) E / E q w Q ( u > u ^ b D.OX . .} o.N s.o. .n A } i.W m ",
"% m E E Q W E % 6 y o > d..XaXpXzXzXzXnXNXxXxX*X  Y.ZXvX8 8 G G q q q / / 8 1 0 : : t O X O O 7 8 E E & q ( 8 = M 1 7 = ` 0 & 8 ",
"M.t . O . X y , 2.gXgXa X   X > : O > ^ b ] d.& ) 1.a p t   7   o X o O O o X O O O o p a y : O O , 0 ( n.y . e X.6 O o e 6 O O ",
"tXK.2.a p m.H.n.U.5.W.M.d t t X.( 5.tXgXM.a s 6 tX7 e 7 y 6 O r X.X.1.n.5.1.` p 2.p + t 7 y s a p 2.p e p 7 o 7 y 7 7 7 a a a a ",
"W.jXtXH.H.U.m.n.d 2.gX2.t H.~.~.uXhXuXZ.m.A.m.6.8.sXgXtXtXQ.R.dXwX3X3XeXrX3XeXsXtXsXtXrXeXwXeXwXtXBXlXdXeXwXsXdXsXsXsXQ.W.W.eXlX",
"U.8.s 8.rXFXtXhXQ.rXgXA.n.M.1.p d 2.K.~.H.X.X.H.hXDXjXFXlXkXeX6.A.J.T.~.wXE.T.K.8.8.R.K.Q.L.x.A.7.K.Y.sXbXnXbXdX,XeXvXvXjXhXhXcX",
"ZXFXDXIXDXkXjXFXVXSXgXtXLXUXUXIXDXLXLXZXBXLXLXvXBXQ.eXwX4XdXBXhXjXVXSXAXSXDXLXSXJXDXJX3XY.K.V.!.LXLXDXZXcXdXlXlXvXuXkXjXBXjXuXeX",
"T.%XBXjXJ.uXCXjXuXFXFXjXuXL.Y.T.uX2XeXyX3X3X3Xk.3.,Xx.4XzXcXAXBXBXkXR.6.<.x.E.T.cXnXcXdX,X3XF.bXAX6.1 w E q m ..` m E ` V.3.w 9 ",
"N 5 9 = % m Q m $ 6 X.( q % 0 7 i 3 > i 1 . > ! 1 1 N.iX% 2 @ 8 & $ < > < < > : 7 w * 3XW.K.` fXZ.* $ u 0 9 m 5 w = > % i > $ 0 ",
"A [ F 9 / M | 2 > > > 3 E O.) i 0 0 u 7 0 > i } q 7 ^ Q q w ^ _ ^ u u 0 y t , , > q 8 6.C.3XeXG.8 < ( E q [ C h W B E h ; < t 3 ",
"] N N c B B M q Q E q Q ( u w E e u X.u / Q W ' ' w M N ^ O.E w E M ^ E u i i 3 u W & / V.C.L.,XE < : q w N E > 1 = * > 3 . . 2 ",
"B A ' H n ] W ( W u E Q s e m ' M ^ X.) ' W ! H n N [ ] | 4.{ O./ ..<.E u u ^ q ) { ^ V.E.Z.C.4Xm 3 e u q = 2 1 k ] [ ..0 1 ] p.",
"B .. .4.F  .F _ m u { O.w ^  .' / u X.{ / W  . .N A ] A H ' W } b ' / q u Q ( _ W q > s A.K.x.C.3.. u ) = ..v.;X/.'.'.r.N g.1X.X",
" . .m f.&.H ' &.W / >.o.W o.B.o...E } A N /  .[ ' &.*.] A F N } | ` ! W u Q _ ) w / ) ^ V.Q.R.!.G > 3 2  .F.b.y.j.`.U I 0.:X8X-.",
">.{ = { } W  . .f.N.d.} ' ..W N ..) &.D F / { c B ] &.*. .N w G 3.M M ) 0 Q ) E E J.T.4.L.P.x.C.E Q @ # &.] 4 b m ! >.&X&X>X(.=.",
"..M w W } ' { / 4.o.{ ) ` W M ` &.| >.] [  .&.H [ V f V ! W 8 # w 1 % q q ( _ / ) N.o./ !.eXR.x.i.% m ,X2Xr...X.m C ] } g K ' f.",
"n 9  .d.B.i.0.i.0...{ { / E W ' &.W ! ~ &.&.q.b.`.#.v n D ! _ / ` | m 2 E ) u | ( ..^ _ Q.4X4XI...n &.*._.:X[ # B b.s.F [ c.= # ",
"[ f.6Xb.j.0.' 4.f.! ' { ) 3 B h.D...w D ;.g.$.9.@X9.&.@.[ c ..I.i.d.F 9 / u O./ 3.| } 4.K.4.K.4XK ' J b..X5 # } p..X@.] '.].F , ",
"xXH N G.'  .0.9. .| M ^ w Q m p.E $ M *.;.>.{ V Z 9.D.j.J $.&Xb.<X6X;XiXb ( ( ) | O.X.6.!.3X6XsX_ M / b b N i.H D k s.w.@.&.M 0 ",
"e.<.%X&Xp.k.b.<.&.{ / ^ = } N p.^ | c.b.@.N m  .<.D v &.w.q.9X}.5X&XiXh.F > ^ X./ { o.3XsXI.x.x.| ' v C F.=X-X-X+Xk.0.s.w.[ 4.f ",
"u.<XNX^.[.q. .| K | O.q ! yX=.g  .f.k.i.M 8 = c n p.f.a./ F ,X9X[ k ,X} ,X> { &.W W N S.I.3XR.I.F N l.=Xb.u.z.P l b.=.%.$.b | *.",
"}.-X7X9.;X] ..[ 0.) u W D.@.D B.W ! &.' % i.&Xb.[ o.{ W M q ' s.C.= M &./ 2 ) o.O.{ / C.L.L.K.K.| ! +.(.=Xs.K s.Z 0.h.e.w.W 2 ' ",
"^.9Xb.'.&X[ |  ...M N h.pX+X,X>.n XX5XF.F s.oXz.H N ) B.o.& # - i.M 0.5Xw.f.} W  .W / S.!.a.K.3X>.; ].xXj.K y.^.l.- H '.}.1X&XJ ",
"w.v.z e.q.c 8 ) O.2 i.].(.9.&.' %XzX&Xi.` f.o.} 0. .N i.}  .P.*XD i.mXpX;X.X*.] A ! { | !.C.d.r O.2 b K v q.]._.I N c.9X-X@X<X=.",
"9.w.`.b.$.N m @ 1 & G.&.@.D.- 4.D.s.= 1 w  .N ' $.c.A | b A `.b.s.5  .f b  .h ~ &.{ | _ eXL.4X3XG.2 2 W D j.'.e.c &.;X%.c u 1 ( ",
" .W B.=.9.].b.1Xw.XXiX$.W  .A &.z.g.9 o.f <.F G [ g.] ' o.) f e.$.- 1 i 3 ) D @.k.2 w u Y.6.L.eX..Z 9X].I q.D J ' i.W . ) E 0 $ ",
"$.2 X O.C Y nXh.a.s.F.H h.&Xw.H `.&X0.,Xl.+X[ v ] S A  .W M H z.D j m m 1 W D ~ [ F = A.K.C.x.A.C.H Z w.J S p.n S C +X9X;.; W 8 ",
"h.S.gXT.v..Xq.H 3 2 / 2 W >.{ ] n ' = a.[ `.p.] f J ' A n ! n I Z S J A q N W A N H d.hXA.wXZ.E.w b h.0.K H p.f.g.l.r.%.S c w 1 ",
"[ 2XGX;XY y.j.p.^ W >./ q u ..v.0.c.m ) & 9 q V C @.A D ] [ [ D ~ D D W m 3 M B D c G.Z.4.Y.4XwXa.A v.T e.oX%.&.! @.C j 2 M 3 3 ",
"[ ! =.).r.J k.! ^ b ' ! s s F %.oX:XZ m 3 0 3 } p.A v ' H N ..N { b W | Q M { D n ' ) 3.K.K.!.^ M b s.;X:X`.j.&.&.g.%Xs.2 w 1 2 ",
"| % @ % m & @ > X : $ $ O , $ @ 8 c - 2 X O + 3 0 > @ $ * . o $ & # 0 3 < < 0 = m M . < 6.Q.C.` X.$ @ ^ F 9 | 7 i w w . @ < . O ",
"o p y : o O X.t u a 6 t 6 : O 7 + . p X.$ X + O O y , : p 7 7 s 3 , t + + + + .     e 1.5.~.a 8.t o 6 e 6 e t O ,   : s 2.y s s ",
"hXwXA.6.U.U.H.~.cXkXE.rXsXQ.U.tXE.7.y t n.Y.m.Q.~.wX~.wXsXL.Q.cXhXsXtX6.V.M.2.n.2.1.Q.Q.8.m.8.K.A.K.Q.wXsXQ.W.A.K.tXsXrXBX3XjXwX",
"JXbXlXbXAXZXBXlXjXBXkXcXfXdXsXU.vXbXvXlXDXSXfXbXeXyXbXvXcXbXsXK.U.tXtXlXAXbX4XzXbXbXbXlXsXsXAXAXZXbXlXbXfXlXcXBXvXlX!.!.!.!.Q.W.",
"Y.K.H.H.U.M.m.n.A.m.7.X.6.Z.,XY.C.T.~.m.` C.!.1.3.T.3X3.wXBXa.4XlXkXzXcX6X4XsXbXnXbXlXsXcXSXdXdX!.!.4X3XK.6.5.5.3.E.m.6.K.x.8.K.",
"HXJXJXHXJXJXLXLXBXVXSXZXDXHXnXnXPXnXzXnXnXcXfXrXbXAXR.M.y * hXPXI.=XxXxX6XiXxX6X6X;X*X6X5X%X4.6XdXyXzXfXfXnXKXJXKXGXAXGXAXGXAXHX",
"_.^.U x J J ]  .k $.K j H r.t.:Xv.'.qXMX'.h.4X9XzX9XfXeXm.W.yX- :XNXMX=X1X-X^.@X[.^.u.].>X&.4.C u.,.u.9.9.y.=X^.H J Z r.w.[ b 9 ",
"qX|. X X8X[.(.].=X9XoX`.]. X[.#XT -.t.#.b M 0.9.H k q.x.E.3X' OXXXJ g z t./././.R _.(.Z I - F.q.{.^._.'.8X[.{.{.L :.(.>X}.=X'.b.",
"/.[. X8X|.[.[.[.qX0X:XqX8X0XqX_.xX5X%XT.x.<.! >.&.q.w.c.eXeXI.D.' # M >.#./.[.P %.-.z.%.].H &.x t.y.Y L [.{./.Y z.Z - M c H w.w.",
"#.*.;.;.,./.[.8X[.[.8XMX|.qX[.^.`.q.%X,X*XxXaXB.&.S $.a.G.dX4X] h 1 # 4 *.;.#.Z #.-.t.u.j.p.*.#.`.j.r.S ;.=.=.D T u.0.*XiX1Xu.,.",
"s.g.g.r.#.R t.t.P =.t.^.,.u.V (.w.H D.#X7X8X@X2Xk 5XXXI.sX,Xc.A n ( 4.&.S g ~ `.z.-.U ).T T $.l.l.Z l.k.D - h.XX-.v.b.y.Y '.1X'.",
"[ $.s.g.*.9.*.#.' 9.9.$.~ P =.&.4 cX:.t.g g.`.b.zX1XA E.R.I.,Xu.@X9X<Xl.k.S %.P K ] L t.9. .} $.T q.r.%.v.*X_.^.%.z z z.u.U w.D ",
"0.0.&.&.J [ =.} ] } k.@.+.>.! - ,X+X~ =.N ] r.z.1XoX; 7.!.3XF.z.-X7X6X:X^.R ,.x U ;.U Y J h.=X9.j.] *.=.C ; x %.T 9.u.^.%.j n N ",
" .[  .] Z ] &.&.[ ' ] %.q.m % c.fXv f C &XD.g.;.#.q. .U.U.R.G.g.+.h c p.S P #.g.L /.Y #.&.h.'.l.=.n ' V k J %.f ' Z z Z $.C [ =.",
"H H J J A J $.&.J ' D [ E $ E %X} Z .X[ v.A S =.D D S.E.6.C.4.j @XaX9X$.- ] #.+.#.] l J } &.%.*.! ! H C @.@.C 5 f ] w.$.Z S $.Z ",
"A ! ! ~ D S ] ~ ] *.p.w . N.VX,XS #.g.v >.} ..@.! J k.P.L.R.v.b.0X/./.(.+X@.P ;.} 2 ..p.+.g.p.&.S ! H n T L x T t.*.P @.$.;.y.9.",
"! } ] ! D ' ] ! ] ] b E uXPXiX5 ! S D N B v n K ! D I C.3X4X6X9X(.U .X=.g.C #.P 4 E B.r.U oXj.#.g.;.w.C #.(._.^.L T @.r.^.^.^.'.",
"] [  .J H J ..] D  .A f.VXzXp.B.D N A w.H A ~ A &.! B C.3X4X*X%.z S @.f [ Y 9.z ] +Xk.I ;.-X_.u.p.+.#.Z x x T U Y 9.T V Y ^.u.Y ",
"[  .[ } ] H J ' W ! ~ r.I j A D V ' ~ ~ N N ! q - h ; 7.!.P.c.# b r.t.t.].y.Y P $._.P A J :.(.0./ h D Z %.Y e.t.Z z Y y.T P $.q.",
"] =.=.@.S ! [ ' =.! A A ! W A V S @.S B h h W W N ` O _ A.wX} E  .D Y oX(./.[.[.t.;.U J I %.*.e.H C J U e.t.t.:.I t.).;.J n g #.",
"S A ] S D S } &.} [ } } ' [ ] A ] @.D v p.>.D ;.&Xl./ G.C.Y.S.`.K K s.z.[.^.P k j [ =.*.@.] D D p.g.;.-.I C C Z v I J %.$.J $.q.",
"~ S ] } J S ] @.J @.&.&.[ ] ~ S A C $.$.h.k.=.r.$.P $.4X4XP.;X'.=X .' C ).R U P =.n H s.&.c B o.=.I U T R #.-.:.@.Y T %.-.t.y.J ",
"S ] &.*.$.A S J +.] } } ] ' J A Z Z v.l.J S @.' A +.$.R.4XR.;Xy.l.[ # n z.R .Xz.@.A ..' k H  .~ A V x T R /./.:.t.,.r.n J (.Y Z ",
"+.S @.&.$.J A ] @.@.@.] ] ] S S P e.r.r.A v D { ! P z x.R.I.F.%.R xX0X>X-.:.;.z j ^ <.] S 0.q.T J A } %.U /.:.Z t.e.u.V n Y S %.",
"] A J } } H N ' } $.] J ~ ] ~ P S P k } 0.D ! ~ A P K P.T.K.4.= A $.g - % $.k 5 D h = N =.Z z e.%.J =.*.:.t.u.C R [.[. X_.T #.z.",
"] S D A ] A A H $.&.@.S J S S P P V V [ &.A A B n S H G.Z.K.<.[ k.] o.J.B.&.z =.(.z.#.P 9.r.e.e.u.#.Z @.#.R L z R [. XqX}.J &.u.",
"D A S S @.] D S @.*.*.@.@.J S +.S S P S ! D N  .' ! - G.Y.Y.a.9XMX$.&.1X9X[.[.t.e.8XqX{.{.8X[.Y %.%.I J $.I L R /./.:.Y C $ 3 N "
};
